<?xml version="1.0" encoding="utf-8"?>
<svg width="160px" height="36px" viewbox="0 0 160 36" version="1.1" xmlns:xlink="http://www.w3.org/1999/xlink" xmlns="http://www.w3.org/2000/svg">
  <defs>
    <path d="M0 35.6718L159.997 35.6718L159.997 0L0 0L0 35.6718Z" transform="translate(0 0.014497549)" id="path_1" />
    <clipPath id="mask_1">
      <use xlink:href="#path_1" />
    </clipPath>
  </defs>
  <g id="Group-12-Copy">
    <path d="M0 27L3 27L3 0L0 0L0 27Z" transform="translate(44 2)" id="Fill-1" fill="#131415" fill-rule="evenodd" stroke="none" />
    <path d="M2.69987 12.2658L15.8477 12.2658L15.8477 14.6956L2.69987 14.6956L2.69987 24.57L18 24.57L18 27L0 27L0 0L18 0L18 2.43001L2.69987 2.43001L2.69987 12.2658Z" transform="translate(53 2)" id="Fill-2" fill="#131415" fill-rule="evenodd" stroke="none" />
    <path d="M16 27L0 27L0 0L2.58561 0L2.58561 24.57L16 24.57L16 27Z" transform="translate(78 2)" id="Fill-3" fill="#131415" fill-rule="evenodd" stroke="none" />
    <g id="Group-11">
      <path d="M12.7997 2.44074C7.47283 2.40199 2.64414 6.35257 2.64414 13.8277C2.64414 21.3026 7.47283 25.2532 12.7997 25.2147C18.8546 25.1757 22.9553 21.3414 22.9553 13.8277C22.9553 6.31381 18.8546 2.47977 12.7997 2.44074M12.7997 0.000968205C19.4679 0.0781955 25.5994 4.57104 25.5994 13.8277C25.5994 23.0841 19.4679 27.577 12.7997 27.6548C6.13159 27.732 0 23.1232 0 13.8277C0 4.53229 6.13159 -0.0768167 12.7997 0.000968205" transform="translate(96.68599 1.2056181)" id="Fill-4" fill="#131415" fill-rule="evenodd" stroke="none" />
      <path d="M0 35.6718L159.997 35.6718L159.997 0L0 0L0 35.6718Z" transform="translate(0 0.014497549)" id="Clip-7" fill="none" fill-rule="evenodd" stroke="none" />
      <g clip-path="url(#mask_1)">
        <path d="M0 27.1115L2.64414 27.1115L2.64414 0L0 0L0 27.1115Z" transform="translate(148.50096 1.4776348)" id="Fill-6" fill="#131415" fill-rule="evenodd" stroke="none" />
        <path d="M23.2701 16.7784C22.4717 19.2263 20.9677 20.1561 19.8954 19.8095C19.0381 19.5321 18.4397 18.3821 19.0361 16.4372C19.9114 13.5814 21.8993 10.7538 24.1926 8.70773C24.4108 11.3923 24.0345 14.4354 23.2701 16.7784L23.2701 16.7784ZM2.53931 28.5744C3.30593 24.12 5.18593 18.626 7.62703 13.9726C12.8458 4.02307 17.7592 2.53735 20.224 2.53735C21.2648 2.53735 22.0894 2.98287 22.7448 3.89845C23.1421 4.45326 23.4538 5.13631 23.6886 5.90608C20.5545 8.29734 17.789 11.932 16.6378 15.6861C15.539 19.2709 17.1597 21.5891 19.1308 22.2264C21.3815 22.9532 24.3448 21.5882 25.6549 17.5727C26.6582 14.4959 27.0877 10.4296 26.5065 6.98085C27.9095 6.13246 29.3269 5.63313 30.5983 5.63313C31.6764 5.63313 32.4535 6.01648 33.0447 6.83922C35.712 10.5511 33.8237 21.1823 31.9443 28.5744L34.5272 28.5744C34.9514 26.8706 35.3937 24.9305 35.7796 22.8966C37.4303 14.1995 37.1937 8.29539 35.0764 5.34848C34.0177 3.87475 32.4692 3.09606 30.5983 3.09606C29.0993 3.09606 27.4673 3.60599 25.8566 4.48755C25.5719 3.72085 25.2149 3.02023 24.7793 2.41161C23.6502 0.833888 22.0748 0 20.224 0C9.72855 0 1.72855 17.7556 0 28.5744L2.53931 28.5744Z" transform="translate(0 0.014525429)" id="Fill-9" fill="#131415" fill-rule="evenodd" stroke="none" />
        <path d="M8.80276 30.4357C7.65462 31.5957 5.85572 31.9883 4.42814 31.3905C3.19172 30.8728 2.5109 29.7437 2.5109 28.2106C2.5109 26.8118 3.3691 25.3559 4.80662 24.3157C5.85572 23.5566 7.76662 22.624 10.8174 22.624C10.9597 22.624 11.1046 22.6262 11.2513 22.6304C11.1186 26.2199 10.2886 28.9338 8.80276 30.4357M8.76497 0L5.95145 0C7.94538 3.87363 9.79145 9.63362 10.672 14.942C10.9763 16.7762 11.1636 18.5017 11.2359 20.0981C7.26097 20.0083 4.72 21.2579 3.3451 22.2526C1.25076 23.7682 0 25.9952 0 28.2106C0 30.7607 1.29628 32.8258 3.46759 33.7347C4.23062 34.0542 5.04303 34.2086 5.85655 34.2086C7.57821 34.2086 9.30428 33.5169 10.5779 32.23C12.6218 30.1638 13.5633 26.7934 13.7382 22.8816C14.9658 23.0882 16.3255 23.4303 17.8273 23.9472L18.6364 21.545C16.8447 20.9283 15.2188 20.5375 13.749 20.3186C13.52 13.4113 11.3258 5.43351 8.76497 0" transform="translate(123.96488 1.4776348)" id="Fill-10" fill="#131415" fill-rule="evenodd" stroke="none" />
      </g>
    </g>
  </g>
</svg>